<?xml version="1.0" encoding="UTF-8"?>
<svg id="Layer_1" xmlns="http://www.w3.org/2000/svg" version="1.1" viewBox="0 0 50 50">
  <!-- Generator: Adobe Illustrator 30.2.1, SVG Export Plug-In . SVG Version: 2.1.1 Build 1)  -->
  <defs>
    <style>
      .st0, .st1, .st2, .st3 {
        fill: none;
      }

      .st1 {
        stroke-width: .2px;
      }

      .st1, .st2, .st3 {
        stroke: #eaeaea;
        stroke-miterlimit: 10;
      }

      .st2 {
        stroke-width: .5px;
      }
    </style>
  </defs>
  <polygon class="st3" points="25.1 3.8 8.8 15.9 8.8 44.9 42.3 44.9 42.3 14.8 25.1 3.8"/>
  <line class="st3" x1="18.3" y1="45" x2="18.3" y2="28.8"/>
  <line class="st3" x1="32.4" y1="45" x2="32.4" y2="28.8"/>
  <line class="st3" x1="15.3" y1="28.6" x2="34.9" y2="28.6"/>
  <line class="st2" x1="11.1" y1="16.7" x2="40.4" y2="16.7"/>
  <g>
    <g>
      <line class="st0" x1="18.7" y1="42.1" x2="30.7" y2="28.4"/>
      <line class="st1" x1="18.7" y1="42.1" x2="30.7" y2="28.4"/>
    </g>
    <g>
      <line class="st0" x1="18.5" y1="38.2" x2="27.1" y2="28.4"/>
      <line class="st1" x1="18.5" y1="38.2" x2="27.1" y2="28.4"/>
    </g>
    <g>
      <line class="st0" x1="18.3" y1="35.4" x2="24.5" y2="28.5"/>
      <line class="st1" x1="18.3" y1="35.4" x2="24.5" y2="28.5"/>
    </g>
    <g>
      <line class="st0" x1="18.2" y1="33.5" x2="22.6" y2="28.5"/>
      <line class="st1" x1="18.2" y1="33.5" x2="22.6" y2="28.5"/>
    </g>
    <g>
      <line class="st0" x1="18.2" y1="32.1" x2="21.3" y2="28.5"/>
      <line class="st1" x1="18.2" y1="32.1" x2="21.3" y2="28.5"/>
    </g>
    <g>
      <line class="st0" x1="18.1" y1="31.1" x2="20.3" y2="28.5"/>
      <line class="st1" x1="18.1" y1="31.1" x2="20.3" y2="28.5"/>
    </g>
  </g>
  <g>
    <g>
      <line class="st0" x1="18.8" y1="29" x2="32.5" y2="41.1"/>
      <line class="st1" x1="18.8" y1="29" x2="32.5" y2="41.1"/>
    </g>
    <g>
      <line class="st0" x1="22.7" y1="28.8" x2="32.5" y2="37.4"/>
      <line class="st1" x1="22.7" y1="28.8" x2="32.5" y2="37.4"/>
    </g>
    <g>
      <line class="st0" x1="25.5" y1="28.7" x2="32.5" y2="34.8"/>
      <line class="st1" x1="25.5" y1="28.7" x2="32.5" y2="34.8"/>
    </g>
    <g>
      <line class="st0" x1="27.5" y1="28.6" x2="32.4" y2="33"/>
      <line class="st1" x1="27.5" y1="28.6" x2="32.4" y2="33"/>
    </g>
    <g>
      <line class="st0" x1="28.9" y1="28.5" x2="32.4" y2="31.6"/>
      <line class="st1" x1="28.9" y1="28.5" x2="32.4" y2="31.6"/>
    </g>
    <g>
      <line class="st0" x1="29.9" y1="28.5" x2="32.4" y2="30.7"/>
      <line class="st1" x1="29.9" y1="28.5" x2="32.4" y2="30.7"/>
    </g>
  </g>
  <g>
    <g>
      <line class="st0" x1="32" y1="31.1" x2="19.9" y2="44.8"/>
      <line class="st1" x1="32" y1="31.1" x2="19.9" y2="44.8"/>
    </g>
    <g>
      <line class="st0" x1="32.2" y1="35" x2="23.6" y2="44.8"/>
      <line class="st1" x1="32.2" y1="35" x2="23.6" y2="44.8"/>
    </g>
    <g>
      <line class="st0" x1="32.3" y1="37.8" x2="26.2" y2="44.8"/>
      <line class="st1" x1="32.3" y1="37.8" x2="26.2" y2="44.8"/>
    </g>
    <g>
      <line class="st0" x1="32.4" y1="39.8" x2="28" y2="44.7"/>
      <line class="st1" x1="32.4" y1="39.8" x2="28" y2="44.7"/>
    </g>
    <g>
      <line class="st0" x1="32.5" y1="41.2" x2="29.4" y2="44.7"/>
      <line class="st1" x1="32.5" y1="41.2" x2="29.4" y2="44.7"/>
    </g>
    <g>
      <line class="st0" x1="32.6" y1="42.2" x2="30.3" y2="44.7"/>
      <line class="st1" x1="32.6" y1="42.2" x2="30.3" y2="44.7"/>
    </g>
  </g>
  <g>
    <g>
      <line class="st0" x1="32.1" y1="44.4" x2="18.4" y2="32.4"/>
      <line class="st1" x1="32.1" y1="44.4" x2="18.4" y2="32.4"/>
    </g>
    <g>
      <line class="st0" x1="28.2" y1="44.6" x2="18.4" y2="36"/>
      <line class="st1" x1="28.2" y1="44.6" x2="18.4" y2="36"/>
    </g>
    <g>
      <line class="st0" x1="25.4" y1="44.8" x2="18.4" y2="38.6"/>
      <line class="st1" x1="25.4" y1="44.8" x2="18.4" y2="38.6"/>
    </g>
    <g>
      <line class="st0" x1="23.4" y1="44.9" x2="18.4" y2="40.5"/>
      <line class="st1" x1="23.4" y1="44.9" x2="18.4" y2="40.5"/>
    </g>
    <g>
      <line class="st0" x1="22" y1="45" x2="18.5" y2="41.8"/>
      <line class="st1" x1="22" y1="45" x2="18.5" y2="41.8"/>
    </g>
    <g>
      <line class="st0" x1="21" y1="45" x2="18.5" y2="42.8"/>
      <line class="st1" x1="21" y1="45" x2="18.5" y2="42.8"/>
    </g>
  </g>
</svg>